
<svg xmlns="http://www.w3.org/2000/svg" xmlns:xlink="http://www.w3.org/1999/xlink" version="1.1" x="0px" y="0px" width="1096px" height="780px" viewBox="0 0 1096 780" enable-background="new 0 0 1096 780" xml:space="preserve">
  <g xmlns="http://www.w3.org/2000/svg">
		<path fill-rule="evenodd" clip-rule="evenodd" fill="#FFFFFF" d="M516.4,123.2h16.1c1,0,1.8,0.8,1.8,1.8v2.4c0,1-0.8,1.8-1.8,1.8    h-7.7l7.1,17.4h45.2l2.6-6.3h-15.4c-1.3,0-2.3-1.1-2.3-2.3v-3.1c0-1.3,1.1-2.3,2.3-2.3h22.7c1.3,0,2.3,1.1,2.3,2.3v3.1    c0,1.3-1.1,2.3-2.3,2.3h-1.2c0,0.4-0.1,0.7-0.2,1.1l-2.1,5.2h1.8c1.3,0,2.3,0.8,2.8,1.9l9.1,17.4c-1.9,0.7-3.7,1.6-5.4,2.6    l-8.2-15.8H581l-18.6,46c-0.5,1.2-1.7,1.9-3,1.8c-1.2,0.6-2.6,0.4-3.6-0.6l-33-35.4l-2.6,5c1.9,1.3,3.7,2.7,5.3,4.4    c6.2,6.2,10,14.8,10,24.2c0,9.5-3.8,18-10,24.2c-6.2,6.2-14.8,10-24.2,10c-9.5,0-18-3.8-24.2-10c-6.2-6.2-10-14.8-10-24.2    c0-9.5,3.8-18,10-24.2c6.2-6.2,14.8-10,24.2-10c4.8,0,9.4,1,13.6,2.8l9.6-18.3c0.3-0.5,0.6-0.9,1.1-1.2l-7.2-17.9h-2.1    c-1,0-1.8-0.8-1.8-1.8V125C514.6,124,515.4,123.2,516.4,123.2L516.4,123.2z M558.1,193.6l16.6-40.9H529l-3.3,6.3L558.1,193.6    L558.1,193.6z M599.9,171.2c-1.9,0.6-3.7,1.5-5.5,2.5l12.6,24.1c0.8,1.5,2.6,2,4.1,1.3c1.5-0.8,2-2.6,1.3-4.1L599.9,171.2    L599.9,171.2z M517.5,174.7l-12,23c-0.8,1.5-2.6,2-4,1.3c-1.5-0.8-2-2.6-1.3-4.1l12.1-23.1c-3.3-1.4-7-2.2-10.9-2.2    c-7.8,0-14.9,3.2-20,8.3c-5.1,5.1-8.3,12.2-8.3,20c0,7.8,3.2,14.9,8.3,20c5.1,5.1,12.2,8.3,20,8.3c7.8,0,14.9-3.2,20-8.3    c5.1-5.1,8.3-12.2,8.3-20c0-7.8-3.2-14.9-8.3-20C520.2,176.8,518.9,175.7,517.5,174.7z"/>
		<path fill-rule="evenodd" clip-rule="evenodd" fill="#FFFFFF" d="M557.7,194.9h17.1c0.7-8.2,4.4-15.6,9.9-21.1    c6.2-6.2,14.8-10,24.2-10s18,3.8,24.2,10c6.2,6.2,10,14.8,10,24.2c0,9.5-3.8,18-10,24.2c-6.2,6.2-14.8,10-24.2,10s-18-3.8-24.2-10    c-5.6-5.6-9.2-13-9.9-21.3h-17.1c-1,0-1.8-0.8-1.8-1.8v-2.4C555.9,195.7,556.7,194.9,557.7,194.9L557.7,194.9z M580.7,194.9H611    c1,0,1.8,0.8,1.8,1.8v2.4c0,1-0.8,1.8-1.8,1.8h-30.2c0.7,6.7,3.7,12.7,8.2,17.2c5.1,5.1,12.2,8.3,20,8.3c7.8,0,14.9-3.2,20-8.3    c5.1-5.1,8.3-12.2,8.3-20c0-7.8-3.2-14.9-8.3-20c-5.1-5.1-12.2-8.3-20-8.3c-7.8,0-14.9,3.2-20,8.3    C584.4,182.4,581.5,188.3,580.7,194.9z"/>
	</g>
  <circle xmlns="http://www.w3.org/2000/svg" fill-rule="evenodd" clip-rule="evenodd" fill="#1573BA" stroke="#FFFFFF" stroke-width="14" stroke-miterlimit="10" cx="554.7" cy="178.3" r="124.7"/>
</svg>
